<?xml version="1.0" standalone="no"?>
<!DOCTYPE svg PUBLIC "-//W3C//DTD SVG 20010904//EN"
 "http://www.w3.org/TR/2001/REC-SVG-20010904/DTD/svg10.dtd">
<svg version="1.0" xmlns="http://www.w3.org/2000/svg"
 width="512.000000pt" height="512.000000pt" viewBox="0 0 512.000000 512.000000"
 preserveAspectRatio="xMidYMid meet">
<metadata>
Created by potrace 1.14, written by Peter Selinger 2001-2017
</metadata>
<g transform="translate(0.000000,512.000000) scale(0.100000,-0.100000)"
fill="#000000" stroke="none">
<path d="M4248 4515 c-3 -3 -38 -7 -79 -8 -41 -2 -79 -6 -85 -10 -6 -3 -14 -3
-18 0 -12 12 -45 10 -50 -4 -7 -16 -38 -17 -55 0 -11 10 -13 10 -7 0 5 -10 -6
-13 -41 -15 -26 0 -56 0 -67 1 -14 1 -16 -2 -8 -12 9 -10 1 -13 -39 -12 -36 1
-53 -4 -59 -14 -8 -14 -9 -14 -10 -1 0 11 -2 12 -8 3 -4 -7 -24 -14 -45 -16
-20 -2 -43 -9 -50 -15 -7 -6 -29 -12 -50 -14 -20 -1 -39 -8 -42 -15 -2 -8 -10
-13 -17 -12 -30 4 -59 -2 -53 -10 3 -5 -7 -11 -22 -13 -18 -2 -27 -8 -25 -17
3 -12 1 -12 -14 0 -12 9 -15 9 -10 2 5 -9 0 -13 -13 -13 -12 0 -21 -6 -21 -12
0 -9 -4 -8 -10 2 -8 13 -10 12 -10 -2 0 -10 -3 -17 -7 -17 -25 4 -53 -2 -48
-11 3 -5 -3 -10 -14 -10 -12 0 -21 -7 -21 -15 0 -9 -9 -15 -25 -15 -14 0 -25
-4 -25 -10 0 -5 -16 -17 -36 -26 -20 -9 -38 -23 -41 -31 -3 -7 -9 -10 -14 -8
-4 3 -17 -3 -29 -15 -11 -11 -22 -20 -25 -20 -11 0 -44 -34 -39 -42 3 -4 -4
-8 -15 -8 -12 0 -20 -6 -18 -12 1 -7 -4 -12 -10 -11 -7 2 -13 -4 -13 -12 0 -8
-7 -15 -15 -15 -8 0 -15 -6 -15 -14 0 -7 -9 -16 -21 -19 -11 -3 -23 -15 -26
-26 -3 -11 -11 -22 -19 -25 -8 -3 -14 -12 -14 -20 0 -10 -6 -13 -15 -10 -11 5
-13 2 -9 -10 4 -11 1 -16 -11 -16 -9 0 -13 -5 -10 -10 4 -6 -7 -23 -23 -40
-16 -16 -27 -32 -24 -35 3 -3 0 -5 -6 -5 -6 0 -9 -9 -7 -21 3 -16 1 -18 -8
-10 -10 7 -13 2 -15 -22 -2 -17 -8 -34 -14 -38 -6 -4 -12 -19 -14 -33 -2 -16
1 -24 8 -20 6 4 6 -1 -1 -14 -14 -26 -14 -35 0 -26 8 5 8 1 0 -14 -14 -26 -14
-35 0 -26 8 5 8 1 0 -14 -14 -27 -14 -35 2 -26 8 5 8 2 -2 -9 -9 -12 -10 -17
-2 -17 7 0 9 -5 5 -12 -13 -20 -16 -80 -4 -73 5 3 10 2 10 -4 0 -5 -6 -12 -12
-15 -10 -5 -10 -7 0 -12 6 -3 9 -11 5 -17 -12 -19 -15 -79 -3 -72 5 3 10 2 10
-4 0 -5 -6 -12 -12 -15 -10 -5 -10 -7 0 -12 6 -3 9 -11 5 -17 -11 -18 -11 -87
0 -80 5 3 4 -4 -2 -15 -14 -26 -14 -35 0 -26 8 5 8 1 0 -14 -14 -26 -14 -35 0
-26 8 5 8 1 0 -14 -14 -27 -14 -35 2 -26 8 5 8 2 -2 -9 -9 -12 -10 -17 -2 -17
7 0 9 -5 5 -12 -13 -20 -16 -80 -4 -73 5 3 10 2 10 -4 0 -5 -6 -12 -12 -15
-10 -5 -10 -7 0 -12 6 -3 9 -11 5 -17 -12 -19 -15 -79 -3 -72 5 3 10 2 10 -4
0 -5 -6 -12 -12 -15 -10 -5 -10 -7 0 -12 6 -3 9 -11 5 -17 -11 -18 -11 -87 0
-80 5 3 4 -4 -2 -15 -14 -26 -14 -35 0 -26 8 5 8 1 0 -14 -14 -26 -14 -35 0
-26 8 5 8 1 0 -14 -14 -26 -14 -35 0 -26 8 5 8 1 0 -14 -14 -26 -14 -35 0 -26
8 5 8 1 0 -14 -14 -26 -14 -35 0 -26 8 5 8 1 0 -14 -14 -26 -14 -35 0 -26 8 5
8 1 0 -14 -14 -27 -14 -35 2 -26 8 5 8 2 -2 -9 -9 -12 -10 -17 -2 -17 7 0 9
-5 5 -12 -13 -20 -16 -80 -4 -73 5 3 10 2 10 -4 0 -5 -6 -12 -12 -15 -10 -5
-10 -7 0 -12 6 -3 9 -11 5 -17 -12 -19 -15 -79 -3 -72 5 3 10 2 10 -4 0 -5 -6
-12 -12 -15 -10 -5 -10 -7 0 -12 6 -3 9 -11 5 -17 -11 -18 -11 -87 0 -80 5 3
4 -4 -2 -15 -14 -26 -14 -35 0 -26 8 5 8 1 0 -14 -14 -26 -14 -35 0 -26 8 5 8
1 0 -14 -14 -27 -14 -35 2 -26 8 5 8 2 -2 -9 -9 -12 -10 -17 -2 -17 7 0 9 -5
5 -12 -13 -20 -16 -80 -4 -73 5 3 10 2 10 -4 0 -5 -6 -12 -12 -15 -10 -5 -10
-7 0 -12 6 -3 9 -11 5 -17 -12 -19 -15 -79 -3 -72 5 3 10 2 10 -4 0 -5 -6 -12
-12 -15 -10 -5 -10 -7 0 -12 6 -3 9 -11 5 -17 -11 -18 -11 -87 0 -80 5 3 4 -4
-2 -15 -14 -26 -14 -35 0 -26 8 5 8 1 0 -14 -14 -26 -14 -35 0 -26 8 5 8 1 0
-14 -14 -27 -14 -35 2 -26 8 5 8 2 -2 -9 -9 -12 -10 -17 -2 -17 7 0 9 -5 5
-12 -13 -20 -16 -80 -4 -73 5 3 10 2 10 -4 0 -5 -6 -12 -12 -15 -10 -5 -10 -7
0 -12 6 -3 9 -11 5 -17 -12 -19 -15 -79 -3 -72 5 3 10 2 10 -4 0 -5 -6 -12
-12 -15 -10 -5 -10 -7 0 -12 6 -3 9 -11 5 -17 -11 -18 -11 -87 0 -80 5 3 4 -4
-2 -15 -14 -26 -14 -35 0 -26 8 5 8 1 0 -14 -14 -26 -14 -35 0 -26 8 5 8 1 0
-14 -14 -27 -14 -35 2 -26 8 5 8 2 -2 -9 -9 -12 -10 -17 -2 -17 7 0 9 -5 5
-12 -11 -18 -16 -81 -6 -75 4 3 9 -4 9 -16 2 -17 0 -19 -7 -7 -8 13 -8 -9 -1
-49 1 -2 8 3 18 10 9 8 19 13 22 12 3 -2 7 2 7 7 1 6 2 16 3 23 1 8 4 7 11 -3
8 -13 10 -12 10 3 0 10 12 23 29 30 15 7 28 14 28 17 -2 11 37 49 45 44 4 -3
8 2 8 11 0 9 5 13 10 10 6 -3 13 1 16 9 3 8 16 18 27 22 12 4 32 17 44 30 12
13 27 24 33 24 5 0 10 6 10 13 0 8 4 7 10 -3 8 -13 10 -12 10 2 0 10 3 17 8
17 19 -3 33 2 27 11 -5 9 15 15 38 11 4 0 7 6 7 14 0 9 9 15 24 15 13 0 26 7
30 15 3 8 9 15 13 14 23 -4 43 2 38 11 -3 6 5 10 18 10 14 0 28 7 31 17 6 15
8 15 16 3 7 -10 10 -11 10 -2 0 6 11 12 24 12 14 0 28 4 31 10 4 6 -1 7 -12 4
-15 -5 -16 -4 -3 5 8 6 30 11 48 11 23 0 31 4 26 12 -5 8 -2 9 9 5 10 -3 17
-3 17 2 0 4 14 7 30 6 22 -1 29 2 26 11 -3 9 8 14 37 16 23 2 41 8 40 13 -1 6
22 11 49 12 30 1 55 7 59 15 7 10 9 10 9 -2 0 -11 2 -12 8 -3 5 7 31 14 59 16
29 1 55 6 60 10 4 5 -1 5 -12 2 -16 -5 -17 -5 -6 3 10 7 21 7 34 0 14 -7 17
-7 13 1 -5 7 7 11 36 11 24 0 50 6 57 13 11 10 13 10 7 0 -4 -8 -1 -13 8 -13
9 0 16 6 16 13 0 8 3 8 9 -2 8 -12 13 -12 35 2 15 11 27 13 31 7 4 -6 12 -7
18 -3 10 6 87 10 285 13 20 0 31 4 27 10 -3 6 -2 10 4 10 5 0 12 -6 14 -12 3
-8 6 -6 6 4 1 10 7 15 14 12 15 -6 67 36 67 54 0 7 7 15 15 18 8 4 15 17 15
30 0 13 5 24 11 24 6 0 10 22 9 52 0 29 1 64 3 78 2 14 0 37 -4 53 -4 15 -5
27 -1 27 6 0 6 66 2 275 0 11 1 31 3 45 1 14 0 37 -4 53 -4 15 -5 27 -1 27 4
0 6 26 4 57 -4 67 -4 70 1 103 2 14 0 37 -4 53 -4 15 -5 27 -1 27 6 0 6 66 2
275 0 11 1 31 3 45 1 14 0 37 -4 53 -4 15 -5 27 -1 27 4 0 6 26 4 57 -4 67 -4
70 1 103 2 14 0 37 -4 53 -4 15 -5 27 -1 27 6 0 6 66 2 275 0 11 1 31 3 45 1
14 0 37 -4 53 -4 15 -5 27 -1 27 4 0 6 26 4 57 -4 67 -4 70 1 103 2 14 0 37
-4 53 -4 15 -5 27 -1 27 6 0 6 66 2 275 0 11 1 31 3 45 1 14 0 37 -4 53 -4 15
-5 27 -1 27 13 0 4 230 -10 247 -9 12 -10 15 0 9 8 -5 12 1 12 18 0 14 -4 26
-10 26 -5 0 -10 5 -10 11 0 5 5 7 12 3 6 -4 3 5 -8 19 -10 15 -23 27 -27 27
-5 0 -5 5 -2 10 6 9 -7 14 -27 11 -4 0 -5 6 -2 14 4 10 0 15 -14 15 -11 0 -25
6 -31 14 -7 8 -25 13 -42 12 -17 -1 -32 1 -35 5 -2 4 -17 4 -33 -1 -17 -4 -33
-4 -38 1 -5 5 -12 7 -15 4z m-238 -3129 c0 -3 -4 -8 -10 -11 -5 -3 -10 -1 -10
4 0 6 5 11 10 11 6 0 10 -2 10 -4z"/>
<path d="M673 4474 c-18 -19 -33 -39 -33 -45 0 -6 -6 -7 -12 -3 -8 5 -8 2 1
-10 12 -15 12 -17 0 -14 -10 2 -15 -10 -17 -50 -2 -30 -7 -50 -13 -47 -5 4 -9
2 -9 -4 0 -5 6 -11 13 -14 10 -3 10 -9 0 -26 -15 -24 -17 -43 -3 -21 8 13 10
13 10 -2 0 -9 -6 -19 -12 -21 -10 -4 -10 -6 0 -6 6 -1 12 -8 12 -17 0 -8 -4
-12 -10 -9 -5 3 -10 1 -10 -4 0 -6 5 -11 10 -11 6 0 10 -7 10 -16 0 -8 -4 -12
-10 -9 -5 3 -10 1 -10 -4 0 -6 5 -11 10 -11 6 0 10 -7 10 -16 0 -8 -4 -12 -10
-9 -5 3 -10 1 -10 -4 0 -6 5 -11 10 -11 6 0 10 -7 10 -16 0 -8 -4 -12 -10 -9
-5 3 -10 2 -10 -4 0 -5 6 -11 13 -14 10 -3 10 -9 0 -26 -15 -24 -17 -43 -3
-21 8 13 10 13 10 -2 0 -9 -6 -19 -12 -21 -10 -4 -10 -6 0 -6 6 -1 12 -8 12
-17 0 -8 -4 -12 -10 -9 -5 3 -10 1 -10 -4 0 -6 5 -11 10 -11 6 0 10 -7 10 -16
0 -8 -4 -12 -10 -9 -5 3 -10 1 -10 -4 0 -6 5 -11 10 -11 6 0 10 -7 10 -16 0
-8 -4 -12 -10 -9 -5 3 -10 1 -10 -4 0 -6 5 -11 10 -11 6 0 10 -5 10 -11 0 -5
-6 -7 -12 -3 -10 6 -10 4 0 -7 6 -7 12 -20 12 -28 0 -14 -2 -14 -10 -1 -6 10
-8 5 -6 -18 1 -17 5 -35 9 -38 4 -4 7 -14 7 -23 0 -14 -2 -14 -10 -1 -6 10 -8
5 -6 -18 1 -17 5 -35 9 -38 4 -4 7 -14 7 -23 0 -14 -2 -14 -10 -1 -6 10 -8 5
-6 -18 1 -17 5 -35 9 -38 4 -4 7 -14 7 -23 0 -14 -2 -14 -10 -1 -6 10 -8 5 -6
-18 1 -17 5 -35 9 -38 4 -4 7 -14 7 -23 0 -14 -2 -14 -10 -1 -6 10 -8 5 -6
-18 1 -17 5 -35 9 -38 4 -4 7 -14 7 -23 0 -14 -2 -14 -10 -1 -6 10 -8 5 -6
-18 1 -17 5 -35 9 -38 4 -4 7 -14 7 -23 0 -14 -2 -14 -10 -1 -6 10 -8 5 -6
-18 1 -17 5 -35 9 -38 4 -4 7 -14 7 -23 0 -14 -2 -14 -10 -1 -8 12 -9 10 -7
-7 2 -12 6 -26 10 -29 11 -11 8 -26 -3 -19 -5 3 -10 1 -10 -4 0 -6 5 -11 10
-11 6 0 10 -7 10 -16 0 -8 -4 -12 -10 -9 -5 3 -10 1 -10 -4 0 -6 5 -11 10 -11
6 0 10 -7 10 -16 0 -8 -4 -12 -10 -9 -5 3 -10 2 -10 -4 0 -5 6 -11 13 -14 10
-3 10 -9 0 -26 -15 -24 -17 -43 -3 -21 8 13 10 13 10 -2 0 -9 -6 -19 -12 -21
-10 -4 -10 -6 0 -6 6 -1 12 -8 12 -17 0 -8 -4 -12 -10 -9 -5 3 -10 1 -10 -4 0
-6 5 -11 10 -11 6 0 10 -7 10 -16 0 -8 -4 -12 -10 -9 -5 3 -10 1 -10 -4 0 -6
5 -11 10 -11 6 0 10 -7 10 -16 0 -8 -4 -12 -10 -9 -5 3 -10 1 -10 -4 0 -6 5
-11 10 -11 6 0 10 -7 10 -16 0 -8 -4 -12 -10 -9 -5 3 -10 2 -10 -4 0 -5 6 -11
13 -14 10 -3 10 -9 0 -26 -15 -24 -17 -43 -3 -21 8 13 10 13 10 -2 0 -9 -6
-19 -12 -21 -10 -4 -10 -6 0 -6 6 -1 12 -8 12 -17 0 -8 -4 -12 -10 -9 -5 3
-10 1 -10 -4 0 -6 5 -11 10 -11 6 0 10 -7 10 -16 0 -8 -4 -12 -10 -9 -5 3 -10
1 -10 -4 0 -6 5 -11 10 -11 6 0 10 -7 10 -16 0 -8 -4 -12 -10 -9 -5 3 -10 1
-10 -4 0 -6 5 -11 10 -11 6 0 10 -7 10 -16 0 -8 -4 -12 -10 -9 -5 3 -10 2 -10
-4 0 -5 6 -11 13 -14 9 -3 9 -9 0 -26 -15 -24 -17 -43 -3 -21 8 13 10 13 10
-2 0 -9 -6 -19 -12 -21 -10 -4 -10 -6 0 -6 6 -1 12 -8 12 -17 0 -8 -4 -12 -10
-9 -5 3 -10 1 -10 -4 0 -6 5 -11 10 -11 6 0 10 -7 10 -16 0 -8 -4 -12 -10 -9
-5 3 -10 1 -10 -4 0 -6 5 -11 10 -11 6 0 10 -7 10 -16 0 -8 -5 -12 -10 -9 -6
3 -10 1 -10 -4 0 -6 5 -11 10 -11 6 0 10 -7 10 -16 0 -8 -4 -12 -10 -9 -5 3
-10 2 -10 -4 0 -5 6 -11 13 -14 10 -3 10 -9 0 -26 -15 -24 -17 -43 -3 -21 8
13 10 13 10 -2 0 -9 -6 -19 -12 -21 -10 -4 -10 -6 0 -6 6 -1 12 -8 12 -17 0
-8 -4 -12 -10 -9 -5 3 -10 1 -10 -4 0 -6 5 -11 10 -11 6 0 10 -7 10 -16 0 -8
-4 -12 -10 -9 -5 3 -10 1 -10 -4 0 -6 5 -11 10 -11 6 0 10 -7 10 -16 0 -8 -4
-12 -10 -9 -5 3 -10 1 -10 -4 0 -6 5 -11 10 -11 6 0 10 -7 10 -16 0 -8 -4 -12
-10 -9 -5 3 -10 2 -10 -4 0 -5 6 -11 13 -14 10 -3 10 -9 0 -26 -15 -24 -17
-43 -3 -21 8 13 10 13 10 -2 0 -9 -6 -19 -12 -21 -10 -4 -10 -6 0 -6 6 -1 12
-8 12 -17 0 -8 -4 -12 -10 -9 -5 3 -10 1 -10 -4 0 -6 5 -11 10 -11 6 0 10 -7
10 -16 0 -8 -5 -12 -10 -9 -6 3 -10 1 -10 -4 0 -6 5 -11 10 -11 6 0 10 -7 10
-16 0 -8 -4 -12 -10 -9 -5 3 -10 1 -10 -4 0 -6 5 -11 10 -11 6 0 10 -5 10 -11
0 -5 -6 -7 -13 -3 -9 6 -9 4 0 -7 7 -7 13 -20 13 -28 0 -14 -2 -14 -10 -1 -6
10 -8 5 -6 -18 1 -17 5 -35 9 -38 4 -4 7 -14 7 -23 0 -14 -2 -14 -10 -1 -6 10
-8 5 -6 -18 1 -17 5 -35 9 -38 4 -4 7 -14 7 -23 0 -14 -2 -14 -10 -1 -6 10 -8
5 -6 -18 1 -17 5 -35 9 -38 4 -4 7 -14 7 -23 0 -12 -2 -13 -8 -3 -5 7 -8 -8
-8 -37 1 -27 4 -47 9 -44 4 2 4 9 1 15 -4 6 -3 8 2 5 6 -3 9 -21 9 -39 -1 -18
5 -38 13 -43 7 -6 14 -19 16 -30 2 -11 8 -21 14 -21 7 -1 17 -2 22 -3 6 0 10
-8 10 -16 0 -14 17 -19 65 -16 11 0 14 -2 8 -5 -33 -15 -1 -19 135 -18 81 0
152 -3 159 -8 7 -6 14 -4 18 3 6 8 10 7 16 -2 7 -11 9 -11 9 1 0 13 2 13 9 1
12 -19 43 -23 53 -8 6 9 8 9 8 0 0 -9 21 -13 69 -13 42 0 71 -4 73 -11 2 -6
24 -13 48 -15 25 -2 55 -9 68 -16 19 -10 25 -9 32 2 8 13 10 13 10 -1 0 -12 9
-15 40 -13 36 2 39 0 28 -14 -12 -14 -10 -14 11 -3 15 8 21 9 17 2 -6 -10 24
-16 72 -14 9 1 10 -3 2 -12 -8 -10 -4 -12 20 -10 17 1 37 -4 45 -12 8 -8 27
-16 42 -17 16 -2 32 -4 36 -5 5 0 6 -5 3 -9 -2 -4 4 -9 15 -9 11 -1 34 -9 51
-17 17 -9 37 -16 45 -16 8 0 11 -5 8 -10 -6 -10 -3 -11 34 -14 11 0 23 -5 28
-10 5 -5 3 -6 -4 -2 -7 4 -13 2 -13 -3 0 -6 13 -11 29 -11 17 0 33 -5 37 -12
5 -7 3 -8 -6 -3 -9 5 -11 4 -6 -3 4 -7 18 -12 32 -12 14 0 22 -4 19 -10 -3 -6
3 -10 15 -10 12 0 19 -4 16 -9 -3 -5 6 -12 22 -16 34 -8 64 -34 55 -49 -4 -6
1 -5 11 3 9 8 16 10 14 5 -2 -5 0 -10 5 -11 14 -5 47 -43 47 -55 0 -9 4 -8 10
2 8 12 11 11 16 -8 5 -18 9 -20 15 -10 7 10 9 9 9 -5 0 -10 12 -23 29 -30 15
-7 30 -16 32 -22 2 -5 7 -9 12 -8 4 2 7 -6 7 -17 0 -14 5 -18 17 -13 12 5 15
2 10 -10 -5 -12 -1 -17 12 -17 18 0 19 42 17 1468 -1 1196 -3 1467 -14 1464
-7 -1 -12 3 -11 10 4 31 -2 48 -17 48 -8 0 -12 5 -9 10 3 6 -1 13 -9 16 -9 3
-16 10 -16 15 0 9 -9 21 -38 54 -7 8 -11 15 -8 15 3 0 -6 11 -19 25 -14 13
-25 30 -25 37 0 9 -3 9 -10 -2 -8 -13 -10 -12 -11 5 -1 11 0 24 1 30 1 5 -2 7
-5 3 -13 -13 -45 12 -45 35 0 13 -3 17 -8 11 -5 -7 -14 -5 -27 9 -11 11 -14
16 -6 12 9 -5 12 -4 7 3 -4 7 -16 12 -27 12 -10 0 -19 7 -19 15 0 8 -7 15 -15
15 -8 0 -15 5 -15 10 0 6 -7 10 -15 10 -8 0 -15 7 -15 15 0 13 -19 20 -43 16
-5 -1 -5 3 -2 9 4 7 -2 14 -14 17 -11 3 -18 9 -15 14 3 5 -6 9 -20 9 -14 0
-26 5 -26 11 0 5 6 7 13 3 7 -4 9 -3 4 2 -9 9 -13 10 -42 13 -8 0 -15 9 -15
19 0 14 -2 15 -10 2 -6 -10 -10 -11 -10 -2 0 6 -6 12 -14 12 -8 0 -16 7 -20
15 -3 9 -12 12 -22 8 -10 -4 -20 0 -26 10 -5 10 -21 17 -38 17 -16 0 -31 4
-34 9 -4 5 4 7 16 4 13 -3 20 -3 17 1 -4 4 -21 9 -40 11 -19 2 -35 9 -37 15
-2 5 -14 10 -27 10 -34 0 -56 11 -48 24 4 6 -2 4 -12 -4 -11 -9 -16 -10 -11
-2 5 9 -2 12 -28 12 -19 0 -41 6 -48 13 -7 7 -29 14 -48 16 -19 1 -38 8 -42
14 -4 6 -23 10 -42 9 -24 -2 -36 2 -36 10 0 8 -3 9 -8 3 -9 -12 -54 -16 -46
-4 3 5 9 7 14 4 5 -3 11 -2 14 3 2 4 -5 8 -17 9 -82 2 -133 8 -139 17 -4 6
-87 11 -217 13 -179 2 -211 0 -211 -12 0 -8 -4 -15 -10 -15 -5 0 -7 7 -4 15 8
21 4 18 -33 -21z m467 15 c0 -4 -9 -7 -19 -6 -11 0 -18 4 -16 7 6 9 35 8 35
-1z m305 -3159 c3 -5 1 -10 -4 -10 -6 0 -11 5 -11 10 0 6 2 10 4 10 3 0 8 -4
11 -10z"/>
<path d="M4415 4500 c3 -5 8 -10 11 -10 2 0 4 5 4 10 0 6 -5 10 -11 10 -5 0
-7 -4 -4 -10z"/>
<path d="M3988 4493 c7 -3 16 -2 19 1 4 3 -2 6 -13 5 -11 0 -14 -3 -6 -6z"/>
<path d="M209 3893 c-1 -5 -1 -11 0 -15 0 -5 -3 -8 -9 -8 -5 0 -10 5 -10 10 0
6 -8 10 -17 10 -15 0 -16 -2 -3 -10 11 -7 7 -10 -17 -11 -44 -2 -44 -2 -76
-23 -21 -14 -25 -21 -15 -27 9 -6 6 -9 -9 -9 -22 0 -26 -7 -26 -53 0 -13 -3
-15 -13 -7 -10 9 -13 -263 -12 -1505 0 -1339 1 -1517 15 -1522 12 -5 12 -7 1
-14 -10 -7 -10 -9 0 -9 6 0 12 -4 12 -10 0 -15 33 -50 48 -50 7 0 10 -5 6 -12
-4 -6 -3 -8 4 -4 6 3 13 2 17 -4 3 -5 15 -10 26 -10 11 0 18 -3 16 -7 -3 -5 6
-9 20 -10 19 -1 22 1 12 8 -9 6 -10 9 -2 9 6 0 15 -5 18 -10 3 -6 11 -10 16
-10 6 0 7 5 4 10 -3 6 -1 10 4 10 6 0 11 -4 11 -10 0 -5 4 -10 10 -10 5 0 9 5
7 11 -2 11 30 17 96 19 9 1 15 5 13 9 -3 4 5 7 17 8 61 2 107 9 107 16 0 4 5
7 11 7 5 0 7 -6 3 -12 -5 -8 -1 -8 10 1 9 8 42 16 73 18 31 2 62 8 69 14 8 7
14 7 19 -1 3 -5 12 -10 18 -10 7 0 6 4 -3 10 -11 7 -5 10 25 11 22 1 51 0 64
-1 16 -1 21 2 16 11 -6 9 -4 10 6 3 20 -13 30 -12 62 3 16 8 34 12 40 9 7 -2
4 -5 -5 -5 -9 -1 -20 -5 -23 -11 -6 -9 17 -4 40 9 13 7 35 9 182 13 77 2 119
7 115 13 -3 6 2 4 11 -4 14 -11 17 -11 17 0 0 9 3 10 8 3 4 -6 23 -11 42 -11
19 0 38 5 42 11 5 7 8 7 8 1 0 -6 27 -12 65 -12 36 -1 65 2 65 7 0 4 -8 6 -19
3 -10 -3 -21 -1 -24 4 -9 15 44 7 54 -8 8 -12 10 -12 19 1 5 8 10 10 10 4 0
-8 40 -12 123 -14 171 -3 167 -3 167 -14 0 -6 5 -4 10 4 9 13 10 13 10 0 0 -9
9 -16 20 -17 13 -1 18 2 14 9 -5 7 -2 8 7 2 16 -10 20 -10 72 -12 23 -1 36 -6
32 -12 -3 -5 -1 -10 4 -10 6 0 11 5 11 10 0 6 5 10 11 10 5 0 7 -4 4 -10 -6
-10 0 -11 79 -13 25 0 43 -4 40 -9 -8 -13 23 -21 54 -13 l27 7 -23 12 c-12 7
-19 16 -15 21 4 4 2 5 -5 1 -6 -4 -12 -2 -12 4 0 6 -4 8 -10 5 -5 -3 -10 0
-10 8 0 8 -9 17 -21 20 -14 4 -18 10 -13 18 5 9 2 10 -9 6 -11 -4 -17 -1 -17
8 0 7 -10 15 -23 17 -12 2 -21 9 -20 16 2 6 -6 12 -16 12 -10 0 -22 7 -25 16
-3 8 -10 13 -15 10 -5 -4 -16 1 -24 9 -9 8 -19 15 -23 15 -4 0 -13 8 -21 18
-8 9 -11 11 -8 3 6 -9 1 -9 -17 3 -14 9 -29 13 -33 9 -5 -5 -4 -1 2 7 10 13 9
16 -5 17 -50 4 -61 8 -52 18 7 8 -1 10 -27 8 -30 -2 -33 0 -19 10 14 10 10 12
-26 15 -24 2 -47 8 -53 14 -7 8 -6 9 5 3 9 -5 12 -4 7 1 -9 10 -14 11 -53 13
-14 0 -23 5 -20 9 5 8 -6 11 -59 15 -16 1 -34 7 -40 14 -5 7 -33 13 -62 14
-30 2 -51 7 -50 13 1 6 -17 12 -43 12 -27 1 -44 6 -42 13 1 6 -2 11 -8 11 -5
0 -10 -4 -10 -10 0 -5 -5 -10 -11 -10 -5 0 -7 5 -4 10 4 6 -9 10 -32 11 -108
3 -143 6 -150 14 -5 4 0 5 10 2 10 -4 16 -3 13 2 -3 4 -83 9 -178 10 -230 4
-241 4 -246 19 -2 6 -20 12 -40 12 -28 0 -33 3 -22 10 13 9 13 10 0 11 -8 1
-23 1 -32 0 -11 -2 -18 5 -18 14 0 9 -4 14 -10 10 -5 -3 -18 3 -30 15 -11 11
-24 20 -29 20 -5 0 -13 9 -16 20 -4 11 -11 18 -16 15 -5 -4 -9 1 -9 10 0 9 -4
14 -9 11 -5 -3 -12 5 -15 19 -4 14 -11 25 -16 25 -6 0 -10 5 -10 11 0 7 -8 18
-17 26 -10 8 -12 11 -5 8 11 -6 11 -3 0 16 -7 13 -17 27 -21 30 -5 4 -10 32
-11 62 -1 31 -6 60 -11 64 -4 4 -5 3 -1 -4 3 -6 3 -14 -1 -16 -5 -3 -9 15 -10
40 -1 40 0 43 14 26 8 -10 7 -4 -4 15 -15 27 -15 36 -5 53 7 11 10 25 6 31
-13 20 -15 80 -4 93 8 10 8 19 1 34 -16 29 -13 35 6 20 17 -13 17 -13 0 7 -9
11 -17 27 -17 34 0 9 5 7 16 -6 15 -17 15 -17 0 8 -20 35 -21 58 -1 32 14 -17
14 -16 0 13 -19 41 -19 49 2 32 16 -13 16 -13 0 11 -22 31 -22 46 0 29 16 -13
16 -13 0 11 -22 31 -22 46 0 29 16 -13 16 -13 0 11 -22 31 -22 46 0 29 16 -13
16 -13 0 11 -22 31 -22 46 0 29 16 -13 16 -13 0 11 -22 31 -22 46 0 29 16 -13
16 -13 0 11 -22 31 -22 46 0 29 16 -13 16 -13 0 11 -22 32 -22 46 1 29 15 -13
16 -12 3 4 -18 23 -25 86 -11 102 8 10 8 19 1 34 -16 29 -13 35 7 20 16 -13
16 -13 0 7 -20 23 -23 50 -7 59 6 4 7 14 4 24 -13 31 -16 83 -5 96 8 10 8 19
1 34 -16 29 -13 35 7 20 16 -13 16 -13 0 7 -20 23 -23 50 -7 59 6 4 7 14 4 24
-13 31 -16 83 -5 96 8 10 8 19 1 34 -16 28 -13 35 6 20 16 -13 16 -13 0 11
-22 31 -22 46 0 29 16 -13 16 -13 0 11 -22 31 -22 46 0 29 16 -13 16 -13 0 11
-22 31 -22 46 0 29 16 -13 16 -13 0 11 -22 31 -22 46 0 29 16 -13 16 -13 0 11
-22 31 -22 46 0 29 16 -13 16 -13 0 11 -22 31 -22 46 0 29 16 -13 16 -13 0 11
-22 31 -22 46 0 29 16 -13 16 -13 0 11 -22 32 -22 46 1 29 16 -13 16 -13 0 7
-20 23 -23 50 -7 59 6 4 7 14 4 24 -13 31 -16 83 -5 96 8 10 8 19 1 34 -16 29
-13 35 7 20 16 -13 16 -13 0 7 -10 11 -18 27 -18 34 0 9 5 7 16 -6 15 -17 15
-17 0 8 -21 35 -21 58 0 32 11 -13 10 -9 -3 14 -15 27 -15 36 -5 53 7 11 10
25 6 31 -13 20 -15 80 -4 93 8 10 8 19 1 34 -16 29 -13 35 7 20 16 -13 16 -13
0 7 -10 11 -18 27 -18 34 0 9 5 7 16 -6 15 -17 15 -17 0 8 -20 35 -21 58 0 32
15 -18 15 -18 4 3 -5 12 -15 25 -20 28 -6 3 -10 12 -10 18 0 7 4 6 10 -3 6 -9
10 -10 10 -3 0 20 -18 24 -29 6 -8 -14 -10 -15 -11 -3 0 13 -1 13 -10 0 -9
-13 -10 -13 -10 0 0 12 -2 12 -9 2 -10 -17 -47 -11 -43 6 1 7 0 12 -3 12 -3 0
-6 -3 -6 -7z"/>
<path d="M4869 3893 c-1 -5 -1 -11 0 -15 2 -13 -17 -9 -22 5 -4 10 -6 10 -6 0
-1 -7 -6 -13 -12 -13 -5 0 -8 4 -5 8 3 5 -1 9 -9 9 -13 0 -15 -160 -16 -1176
0 -647 -2 -1193 -3 -1213 -1 -21 -7 -43 -14 -50 -7 -7 -12 -23 -12 -37 0 -21
-2 -23 -10 -11 -8 12 -10 8 -11 -15 -1 -16 -1 -34 0 -39 1 -5 -5 -3 -14 4 -9
7 -15 9 -14 4 4 -22 -2 -55 -9 -50 -9 6 -42 -29 -42 -44 0 -6 -4 -10 -10 -10
-15 0 -50 -33 -44 -42 3 -4 -4 -8 -16 -8 -14 0 -19 -4 -14 -12 5 -8 2 -8 -10
1 -15 12 -17 12 -14 0 2 -8 -4 -13 -14 -13 -11 1 -18 -5 -18 -15 0 -14 -2 -14
-10 -1 -8 13 -10 13 -10 -1 0 -10 -8 -15 -22 -14 -13 1 -26 -2 -29 -7 -8 -12
-54 -16 -214 -18 -80 -1 -136 -6 -144 -13 -10 -8 -12 -8 -8 -1 4 7 -6 10 -27
10 -19 -1 -32 -4 -29 -9 2 -4 10 -4 16 -1 7 4 9 3 4 -1 -4 -5 -38 -10 -75 -11
-37 -1 -75 -3 -85 -3 -12 -1 -16 -6 -11 -13 4 -7 4 -10 -1 -6 -4 4 -15 2 -24
-5 -14 -11 -14 -10 -2 6 9 11 10 17 2 17 -6 0 -14 -6 -16 -13 -3 -7 -22 -12
-48 -11 -23 0 -53 -3 -67 -8 -25 -8 -25 -8 2 -4 15 2 25 -1 22 -5 -3 -5 -30
-9 -60 -9 -34 0 -53 -4 -49 -10 6 -10 -4 -12 -52 -13 -14 -1 -23 -7 -23 -16 0
-14 -1 -14 -10 -1 -5 8 -10 10 -10 4 0 -6 -18 -14 -39 -18 -22 -3 -41 -10 -43
-16 -1 -5 -15 -11 -30 -12 -16 -1 -28 -8 -28 -16 0 -7 -6 -12 -12 -11 -29 3
-49 -2 -43 -11 4 -6 -7 -10 -24 -10 -17 0 -31 -5 -31 -11 0 -5 5 -7 12 -3 7 4
8 3 4 -5 -4 -6 -13 -11 -19 -10 -30 4 -47 -2 -47 -16 0 -9 -6 -15 -12 -14 -27
3 -38 -2 -38 -17 0 -8 -4 -13 -10 -9 -5 3 -19 -4 -30 -15 -11 -11 -25 -18 -30
-15 -6 4 -10 -1 -10 -9 0 -9 -7 -16 -15 -16 -8 0 -15 -6 -15 -12 0 -9 -4 -8
-10 2 -8 13 -10 12 -10 -2 0 -10 -5 -18 -11 -18 -5 0 -7 -5 -3 -12 4 -7 3 -8
-4 -4 -7 4 -25 -6 -42 -24 -16 -16 -34 -30 -40 -30 -5 0 -10 -7 -10 -15 0 -12
10 -15 40 -13 28 1 37 5 30 13 -7 8 -5 12 5 12 8 0 15 -4 15 -9 0 -4 5 -8 11
-8 5 0 7 5 3 11 -5 8 4 10 30 7 27 -3 36 0 37 12 0 10 2 11 6 3 2 -7 9 -13 14
-13 6 0 7 5 4 10 -6 10 9 11 152 14 51 1 58 3 42 12 -16 8 14 11 128 14 227 4
227 4 242 14 9 6 12 5 8 -1 -4 -6 6 -10 23 -11 17 0 30 3 30 8 0 5 -7 7 -15 4
-8 -4 -15 -2 -15 4 0 15 30 8 41 -9 8 -12 10 -12 19 1 6 10 10 11 10 3 0 -7 8
-13 18 -13 14 0 15 2 2 10 -9 6 -10 10 -3 10 6 0 15 -5 19 -11 4 -8 9 -7 15 2
5 9 9 10 9 2 0 -14 72 -13 82 1 5 8 8 7 8 -1 0 -7 33 -12 103 -13 147 -3 160
-4 176 -14 9 -6 12 -5 8 0 -3 6 4 10 16 11 12 0 16 -1 10 -4 -26 -9 -12 -19
27 -19 22 0 40 4 40 10 0 6 4 5 9 -2 4 -8 11 -13 15 -13 29 4 76 -1 72 -7 -2
-4 9 -9 25 -10 19 -2 28 2 24 8 -3 5 -2 10 3 10 6 0 12 -6 15 -12 3 -9 25 -13
61 -12 36 0 55 -4 53 -10 -4 -10 43 -16 145 -19 15 -1 24 -5 22 -9 -3 -5 -11
-5 -17 -2 -7 4 -8 3 -4 -2 4 -4 31 -9 60 -10 29 -1 51 -6 50 -11 -3 -14 50
-15 59 -1 6 10 8 9 8 -2 0 -13 1 -13 10 0 9 13 10 13 10 0 0 -11 2 -12 8 -3 5
7 20 14 35 15 15 1 27 8 27 15 0 7 5 13 10 13 10 0 48 34 53 48 1 4 6 6 11 4
5 -2 3 5 -5 14 -9 12 -10 15 -1 10 10 -6 12 299 12 1529 0 1351 -2 1536 -15
1531 -8 -3 -14 -2 -14 2 4 22 -2 42 -11 37 -5 -3 -10 1 -10 9 0 9 -6 16 -14
16 -8 0 -16 5 -18 12 -4 12 -19 16 -75 20 -17 1 -29 6 -27 10 3 4 1 8 -5 8 -5
0 -12 -6 -14 -12 -4 -10 -6 -10 -6 0 -1 6 -6 12 -12 12 -5 0 -7 -5 -3 -11 4
-7 1 -10 -7 -7 -8 3 -13 11 -11 17 1 6 0 11 -3 11 -3 0 -6 -3 -6 -7z m58
-3289 c-3 -3 -12 -4 -19 -1 -8 3 -5 6 6 6 11 1 17 -2 13 -5z"/>
<path d="M4960 3890 c-9 -6 -10 -10 -3 -10 6 0 15 5 18 10 8 12 4 12 -15 0z"/>
<path d="M330 3681 c0 -6 4 -12 8 -15 5 -3 9 1 9 9 0 8 -4 15 -9 15 -4 0 -8
-4 -8 -9z"/>
<path d="M330 3560 c0 -5 5 -10 10 -10 6 0 10 5 10 10 0 6 -4 10 -10 10 -5 0
-10 -4 -10 -10z"/>
<path d="M330 3361 c0 -6 4 -12 8 -15 5 -3 9 1 9 9 0 8 -4 15 -9 15 -4 0 -8
-4 -8 -9z"/>
<path d="M330 3240 c0 -5 5 -10 10 -10 6 0 10 5 10 10 0 6 -4 10 -10 10 -5 0
-10 -4 -10 -10z"/>
<path d="M330 2801 c0 -6 4 -12 8 -15 5 -3 9 1 9 9 0 8 -4 15 -9 15 -4 0 -8
-4 -8 -9z"/>
<path d="M330 2680 c0 -5 5 -10 10 -10 6 0 10 5 10 10 0 6 -4 10 -10 10 -5 0
-10 -4 -10 -10z"/>
<path d="M330 2561 c0 -6 4 -12 8 -15 5 -3 9 1 9 9 0 8 -4 15 -9 15 -4 0 -8
-4 -8 -9z"/>
<path d="M330 2440 c0 -5 5 -10 10 -10 6 0 10 5 10 10 0 6 -4 10 -10 10 -5 0
-10 -4 -10 -10z"/>
<path d="M330 2321 c0 -6 4 -12 8 -15 5 -3 9 1 9 9 0 8 -4 15 -9 15 -4 0 -8
-4 -8 -9z"/>
<path d="M330 1761 c0 -6 4 -12 8 -15 5 -3 9 1 9 9 0 8 -4 15 -9 15 -4 0 -8
-4 -8 -9z"/>
<path d="M330 1640 c0 -5 5 -10 10 -10 6 0 10 5 10 10 0 6 -4 10 -10 10 -5 0
-10 -4 -10 -10z"/>
<path d="M4773 1472 c-1 -22 0 -24 9 -8 6 10 6 22 2 26 -5 5 -10 -3 -11 -18z"/>
<path d="M1398 1053 c7 -3 16 -2 19 1 4 3 -2 6 -13 5 -11 0 -14 -3 -6 -6z"/>
<path d="M2130 1020 c0 -5 5 -10 11 -10 5 0 7 5 4 10 -3 6 -8 10 -11 10 -2 0
-4 -4 -4 -10z"/>
<path d="M1755 700 c-3 -5 -1 -10 4 -10 6 0 11 5 11 10 0 6 -2 10 -4 10 -3 0
-8 -4 -11 -10z"/>
</g>
</svg>
